# xmcd CD Database Entry
#
# Track frame offsets:
# 150
# 41970
# 60095
#
# Disc length: 1351 seconds
#
# Revision: 1
# Processed by: cddbd v1.4PL0 Copyright (c) Steve Scherf et al.
# Submitted via: tcd 2.0b
#
DISCID=1e054503
DTITLE=Psychick Warriors ov Gaia - Peel Session
DYEAR=1900
DGENRE=
TTITLE0=Break
TTITLE1=Dust
TTITLE2=Pull
EXTD=
EXTT0=
EXTT1=
EXTT2=
PLAYORDER=
